<mxfile host="app.diagrams.net" modified="2021-08-25T02:31:37.316Z" agent="5.0 (Macintosh; Intel Mac OS X 10_15_7) AppleWebKit/537.36 (KHTML, like Gecko) Chrome/86.0.4240.193 Safari/537.36" etag="BiuZYulums0s1m3xp7vk" version="14.9.8" type="github">
  <diagram id="u5QrBE_CzFElulxA_ps-" name="Page-1">
    <mxGraphModel dx="946" dy="536" grid="1" gridSize="10" guides="1" tooltips="1" connect="1" arrows="1" fold="1" page="1" pageScale="1" pageWidth="827" pageHeight="1169" math="0" shadow="0">
      <root>
        <mxCell id="0" />
        <mxCell id="1" parent="0" />
        <mxCell id="csEbbyCo0Rl7-w98DxTJ-1" style="rounded=0;orthogonalLoop=1;jettySize=auto;html=1;exitX=0;exitY=1;exitDx=0;exitDy=0;entryX=0.7;entryY=0.05;entryDx=0;entryDy=0;entryPerimeter=0;fillColor=#dae8fc;strokeColor=#6c8ebf;" edge="1" parent="1" source="csEbbyCo0Rl7-w98DxTJ-3" target="csEbbyCo0Rl7-w98DxTJ-6">
          <mxGeometry relative="1" as="geometry" />
        </mxCell>
        <mxCell id="csEbbyCo0Rl7-w98DxTJ-2" style="edgeStyle=none;rounded=0;orthogonalLoop=1;jettySize=auto;html=1;exitX=1;exitY=1;exitDx=0;exitDy=0;fillColor=#dae8fc;strokeColor=#6c8ebf;" edge="1" parent="1" source="csEbbyCo0Rl7-w98DxTJ-3" target="csEbbyCo0Rl7-w98DxTJ-8">
          <mxGeometry relative="1" as="geometry" />
        </mxCell>
        <mxCell id="csEbbyCo0Rl7-w98DxTJ-3" value="" style="ellipse;whiteSpace=wrap;html=1;aspect=fixed;fillColor=#dae8fc;strokeColor=#6c8ebf;" vertex="1" parent="1">
          <mxGeometry x="230" y="110" width="40" height="40" as="geometry" />
        </mxCell>
        <mxCell id="csEbbyCo0Rl7-w98DxTJ-4" style="edgeStyle=none;rounded=0;orthogonalLoop=1;jettySize=auto;html=1;exitX=0;exitY=1;exitDx=0;exitDy=0;entryX=0.5;entryY=0;entryDx=0;entryDy=0;fillColor=#dae8fc;strokeColor=#6c8ebf;" edge="1" parent="1" source="csEbbyCo0Rl7-w98DxTJ-6" target="csEbbyCo0Rl7-w98DxTJ-9">
          <mxGeometry relative="1" as="geometry" />
        </mxCell>
        <mxCell id="csEbbyCo0Rl7-w98DxTJ-5" style="edgeStyle=none;rounded=0;orthogonalLoop=1;jettySize=auto;html=1;exitX=1;exitY=1;exitDx=0;exitDy=0;entryX=0.5;entryY=0;entryDx=0;entryDy=0;fillColor=#dae8fc;strokeColor=#6c8ebf;" edge="1" parent="1" source="csEbbyCo0Rl7-w98DxTJ-6" target="csEbbyCo0Rl7-w98DxTJ-10">
          <mxGeometry relative="1" as="geometry" />
        </mxCell>
        <mxCell id="csEbbyCo0Rl7-w98DxTJ-6" value="" style="ellipse;whiteSpace=wrap;html=1;aspect=fixed;fillColor=#dae8fc;strokeColor=#6c8ebf;" vertex="1" parent="1">
          <mxGeometry x="160" y="190" width="40" height="40" as="geometry" />
        </mxCell>
        <mxCell id="csEbbyCo0Rl7-w98DxTJ-7" style="edgeStyle=none;rounded=0;orthogonalLoop=1;jettySize=auto;html=1;exitX=0;exitY=1;exitDx=0;exitDy=0;entryX=0.5;entryY=0;entryDx=0;entryDy=0;fillColor=#dae8fc;strokeColor=#6c8ebf;" edge="1" parent="1" source="csEbbyCo0Rl7-w98DxTJ-8">
          <mxGeometry relative="1" as="geometry">
            <mxPoint x="290" y="270" as="targetPoint" />
          </mxGeometry>
        </mxCell>
        <mxCell id="csEbbyCo0Rl7-w98DxTJ-13" style="rounded=0;orthogonalLoop=1;jettySize=auto;html=1;exitX=1;exitY=1;exitDx=0;exitDy=0;entryX=0.5;entryY=0;entryDx=0;entryDy=0;fillColor=#dae8fc;strokeColor=#6c8ebf;" edge="1" parent="1" source="csEbbyCo0Rl7-w98DxTJ-8" target="csEbbyCo0Rl7-w98DxTJ-12">
          <mxGeometry relative="1" as="geometry" />
        </mxCell>
        <mxCell id="csEbbyCo0Rl7-w98DxTJ-8" value="" style="ellipse;whiteSpace=wrap;html=1;aspect=fixed;fillColor=#dae8fc;strokeColor=#6c8ebf;" vertex="1" parent="1">
          <mxGeometry x="300" y="190" width="40" height="40" as="geometry" />
        </mxCell>
        <mxCell id="csEbbyCo0Rl7-w98DxTJ-9" value="" style="ellipse;whiteSpace=wrap;html=1;aspect=fixed;fillColor=#dae8fc;strokeColor=#6c8ebf;" vertex="1" parent="1">
          <mxGeometry x="120" y="270" width="40" height="40" as="geometry" />
        </mxCell>
        <mxCell id="csEbbyCo0Rl7-w98DxTJ-10" value="" style="ellipse;whiteSpace=wrap;html=1;aspect=fixed;fillColor=#dae8fc;strokeColor=#6c8ebf;" vertex="1" parent="1">
          <mxGeometry x="190" y="270" width="40" height="40" as="geometry" />
        </mxCell>
        <mxCell id="csEbbyCo0Rl7-w98DxTJ-11" value="" style="ellipse;whiteSpace=wrap;html=1;aspect=fixed;fillColor=#dae8fc;strokeColor=#6c8ebf;" vertex="1" parent="1">
          <mxGeometry x="270" y="270" width="40" height="40" as="geometry" />
        </mxCell>
        <mxCell id="csEbbyCo0Rl7-w98DxTJ-12" value="" style="ellipse;whiteSpace=wrap;html=1;aspect=fixed;fillColor=#dae8fc;strokeColor=#6c8ebf;" vertex="1" parent="1">
          <mxGeometry x="340" y="270" width="40" height="40" as="geometry" />
        </mxCell>
        <mxCell id="csEbbyCo0Rl7-w98DxTJ-15" value="1" style="html=1;fontColor=#FF3333;fontStyle=1;align=left;verticalAlign=top;spacing=0;labelBorderColor=none;fillColor=none;dashed=1;strokeWidth=2;strokeColor=#FF3333;spacingLeft=4;spacingTop=-3;" vertex="1" parent="1">
          <mxGeometry x="104" y="170" width="126" height="160" as="geometry" />
        </mxCell>
        <mxCell id="csEbbyCo0Rl7-w98DxTJ-17" value="2" style="html=1;fontColor=#FF3333;fontStyle=1;align=left;verticalAlign=top;spacing=0;labelBorderColor=none;fillColor=none;dashed=1;strokeWidth=2;strokeColor=#FF3333;spacingLeft=4;spacingTop=-3;" vertex="1" parent="1">
          <mxGeometry x="260" y="170" width="126" height="160" as="geometry" />
        </mxCell>
        <mxCell id="csEbbyCo0Rl7-w98DxTJ-18" value="3" style="html=1;fontColor=#FF3333;fontStyle=1;align=left;verticalAlign=top;spacing=0;labelBorderColor=none;fillColor=none;dashed=1;strokeWidth=2;strokeColor=#FF3333;spacingLeft=4;spacingTop=-3;" vertex="1" parent="1">
          <mxGeometry x="147" y="70" width="213" height="170" as="geometry" />
        </mxCell>
      </root>
    </mxGraphModel>
  </diagram>
</mxfile>
